<svg width="32" height="32" viewBox="0 0 32 32" fill="none" xmlns="http://www.w3.org/2000/svg">
<rect width="32" height="32" fill="#D1D1D8"/>
<path fill-rule="evenodd" clip-rule="evenodd" d="M7.81818 8C7.36631 8 7 8.36631 7 8.81818V19.4545C7 19.9064 7.36631 20.2727 7.81818 20.2727H15.1818V21.9091H11.0909C10.639 21.9091 10.2727 22.2754 10.2727 22.7273C10.2727 23.1791 10.639 23.5455 11.0909 23.5455H20.9091C21.361 23.5455 21.7273 23.1791 21.7273 22.7273C21.7273 22.2754 21.361 21.9091 20.9091 21.9091H16.8182V20.2727H24.1818C24.6337 20.2727 25 19.9064 25 19.4545V8.81818C25 8.36631 24.6337 8 24.1818 8H7.81818ZM13.5455 14.9545C13.5455 14.5027 13.1791 14.1364 12.7273 14.1364C12.2754 14.1364 11.9091 14.5027 11.9091 14.9545V16.5909C11.9091 17.0428 12.2754 17.4091 12.7273 17.4091C13.1791 17.4091 13.5455 17.0428 13.5455 16.5909V14.9545ZM16 12.5C16.4519 12.5 16.8182 12.8663 16.8182 13.3182V16.5909C16.8182 17.0428 16.4519 17.4091 16 17.4091C15.5481 17.4091 15.1818 17.0428 15.1818 16.5909V13.3182C15.1818 12.8663 15.5481 12.5 16 12.5ZM20.0909 11.6818C20.0909 11.2299 19.7246 10.8636 19.2727 10.8636C18.8209 10.8636 18.4545 11.2299 18.4545 11.6818V16.5909C18.4545 17.0428 18.8209 17.4091 19.2727 17.4091C19.7246 17.4091 20.0909 17.0428 20.0909 16.5909V11.6818Z" fill="white"/>
</svg>
