<svg width="32" height="32" viewBox="0 0 32 32" fill="none" xmlns="http://www.w3.org/2000/svg">
<rect width="32" height="32" fill="#FF4D4F"/>
<path fill-rule="evenodd" clip-rule="evenodd" d="M24.98 7.63875C25.0792 8.07959 24.8022 8.51738 24.3614 8.61657L20.091 9.57742V15.1819H24.1818C24.6337 15.1819 25 15.5482 25 16.0001C25 18.4194 24.2689 20.6777 22.7382 22.3397C21.1974 24.0128 18.9208 25 16.0001 25C13.0794 25 10.8028 24.0128 9.26199 22.3397C7.73128 20.6777 7.0002 18.4194 7.0002 16.0001C7.0002 15.5482 7.36651 15.1819 7.81837 15.1819H8.63655V12.1547L7.99795 12.2983C7.55711 12.3975 7.11932 12.1206 7.02013 11.6797C6.92094 11.2389 7.19791 10.8011 7.63875 10.7019L8.63655 10.4774V10.2729C8.63655 9.82103 9.00285 9.45472 9.45472 9.45472C9.85178 9.45472 10.1828 9.73756 10.2572 10.1128L11.9092 9.74105V9.45472C11.9092 9.00285 12.2755 8.63655 12.7274 8.63655C13.152 8.63655 13.501 8.9599 13.5416 9.37376L15.1819 9.0047V8.63655C15.1819 8.18468 15.5482 7.81837 16.0001 7.81837C16.452 7.81837 16.8183 8.18467 16.8183 8.63652L18.4546 8.26834V7.81837C18.4546 7.36651 18.8209 7.0002 19.2728 7.0002C19.7247 7.0002 20.091 7.36651 20.091 7.81837V7.90016L24.0022 7.02013C24.4431 6.92094 24.8808 7.19791 24.98 7.63875ZM10.2729 15.1819H11.9092V11.4183L10.2729 11.7865V15.1819ZM13.5456 15.1819H15.1819V10.6819L13.5456 11.0501V15.1819ZM16.8183 15.1819H18.4546V9.94559L16.8183 10.3138V15.1819Z" fill="white"/>
</svg>
