<svg width="32" height="32" viewBox="0 0 32 32" fill="none" xmlns="http://www.w3.org/2000/svg">
<circle cx="16" cy="16" r="16" fill="#D1D1D8"/>
<rect width="32" height="32" fill="#D1D1D8"/>
<path fill-rule="evenodd" clip-rule="evenodd" d="M9 8.63636C9 7.73262 9.73262 7 10.6364 7H22.0909C22.9947 7 23.7273 7.73263 23.7273 8.63636V23.3636C23.7273 24.2674 22.9947 25 22.0909 25H10.6364C9.73263 25 9 24.2674 9 23.3636V8.63636ZM18.5785 12.0785C18.8981 11.759 18.8981 11.241 18.5785 10.9215C18.259 10.6019 17.741 10.6019 17.4215 10.9215L16.3636 11.9793L15.3058 10.9215C14.9863 10.6019 14.4683 10.6019 14.1487 10.9215C13.8292 11.241 13.8292 11.759 14.1487 12.0785L15.2066 13.1364L14.1487 14.1942C13.8292 14.5137 13.8292 15.0317 14.1487 15.3513C14.4683 15.6708 14.9863 15.6708 15.3058 15.3513L16.3636 14.2934L17.4215 15.3513C17.741 15.6708 18.259 15.6708 18.5785 15.3513C18.8981 15.0317 18.8981 14.5137 18.5785 14.1942L17.5207 13.1364L18.5785 12.0785ZM12.6818 18.4545C12.6818 18.0027 13.0481 17.6364 13.5 17.6364H19.2273C19.6791 17.6364 20.0455 18.0027 20.0455 18.4545C20.0455 18.9064 19.6791 19.2727 19.2273 19.2727H13.5C13.0481 19.2727 12.6818 18.9064 12.6818 18.4545ZM12.6818 20.9091C12.6818 20.4572 13.0481 20.0909 13.5 20.0909H16.3636C16.8155 20.0909 17.1818 20.4572 17.1818 20.9091C17.1818 21.361 16.8155 21.7273 16.3636 21.7273H13.5C13.0481 21.7273 12.6818 21.361 12.6818 20.9091Z" fill="white"/>
</svg>
