<svg width="32" height="32" viewBox="0 0 32 32" fill="none" xmlns="http://www.w3.org/2000/svg">
<rect width="32" height="32" fill="#9268F0"/>
<path fill-rule="evenodd" clip-rule="evenodd" d="M7 8.81818C7 8.36631 7.36631 8 7.81818 8H24.1818C24.6337 8 25 8.36631 25 8.81818V21.0909C25 21.5428 24.6337 21.9091 24.1818 21.9091H18.3844L16.5785 23.7149C16.259 24.0344 15.741 24.0344 15.4215 23.7149L13.6156 21.9091H7.81818C7.36631 21.9091 7 21.5428 7 21.0909V8.81818ZM14.3636 11.2727C14.8155 11.2727 15.1818 11.639 15.1818 12.0909V17.8182C15.1818 18.2701 14.8155 18.6364 14.3636 18.6364C13.9118 18.6364 13.5455 18.2701 13.5455 17.8182V12.0909C13.5455 11.639 13.9118 11.2727 14.3636 11.2727ZM11.0909 12.5C11.5428 12.5 11.9091 12.8663 11.9091 13.3182V16.5909C11.9091 17.0428 11.5428 17.4091 11.0909 17.4091C10.639 17.4091 10.2727 17.0428 10.2727 16.5909V13.3182C10.2727 12.8663 10.639 12.5 11.0909 12.5ZM18.4545 14.1364C18.4545 13.6845 18.0882 13.3182 17.6364 13.3182C17.1845 13.3182 16.8182 13.6845 16.8182 14.1364V15.7727C16.8182 16.2246 17.1845 16.5909 17.6364 16.5909C18.0882 16.5909 18.4545 16.2246 18.4545 15.7727V14.1364ZM20.9091 12.5C21.361 12.5 21.7273 12.8663 21.7273 13.3182V16.5909C21.7273 17.0428 21.361 17.4091 20.9091 17.4091C20.4572 17.4091 20.0909 17.0428 20.0909 16.5909V13.3182C20.0909 12.8663 20.4572 12.5 20.9091 12.5Z" fill="white"/>
</svg>
