<svg width="32" height="32" viewBox="0 0 32 32" fill="none" xmlns="http://www.w3.org/2000/svg">
<rect width="32" height="32" fill="#D1D1D8"/>
<path d="M11.8636 8C10.508 8 9.40909 9.09894 9.40909 10.4545C9.40909 11.8102 10.508 12.9091 11.8636 12.9091C13.2192 12.9091 14.3182 11.8102 14.3182 10.4545C14.3182 9.09894 13.2192 8 11.8636 8Z" fill="white"/>
<path d="M19.2273 8C17.8717 8 16.7727 9.09894 16.7727 10.4545C16.7727 11.8102 17.8717 12.9091 19.2273 12.9091C20.5829 12.9091 21.6818 11.8102 21.6818 10.4545C21.6818 9.09894 20.5829 8 19.2273 8Z" fill="white"/>
<path d="M9.81818 13.7273C9.58831 13.7273 9.36904 13.824 9.21402 13.9937C9.05901 14.1635 8.98255 14.3906 9.00336 14.6195L9.82154 23.6195C9.85986 24.041 10.2132 24.3636 10.6364 24.3636H13.0909C13.5141 24.3636 13.8674 24.041 13.9057 23.6195L14.7239 14.6195C14.7447 14.3906 14.6683 14.1635 14.5133 13.9937C14.3582 13.824 14.139 13.7273 13.9091 13.7273H9.81818Z" fill="white"/>
<path d="M17.1818 13.7273C16.7864 13.7273 16.4476 14.0101 16.3768 14.3991L15.5587 18.8991C15.5153 19.1378 15.58 19.3834 15.7355 19.5697C15.8909 19.756 16.121 19.8636 16.3636 19.8636H16.8437L17.1852 23.6195C17.2235 24.041 17.5768 24.3636 18 24.3636H20.4546C20.8777 24.3636 21.2311 24.041 21.2694 23.6195L21.6108 19.8636H22.0909C22.3335 19.8636 22.5636 19.756 22.7191 19.5697C22.8745 19.3834 22.9393 19.1378 22.8959 18.8991L22.0777 14.3991C22.007 14.0101 21.6681 13.7273 21.2727 13.7273H17.1818Z" fill="white"/>
</svg>
