<svg width="32" height="32" viewBox="0 0 32 32" fill="none" xmlns="http://www.w3.org/2000/svg">
<rect width="32" height="32" fill="#D1D1D8"/>
<path fill-rule="evenodd" clip-rule="evenodd" d="M8 23.1817V15C8 10.0294 12.0294 6 17 6C21.9706 6 26 10.0294 26 15C26 19.9706 21.9706 24 17 24H8.81825C8.36638 24 8 23.6336 8 23.1817ZM12.9091 11.7273C12.4572 11.7273 12.0909 12.0936 12.0909 12.5455C12.0909 12.9973 12.4572 13.3636 12.9091 13.3636H20.2727C20.7246 13.3636 21.0909 12.9973 21.0909 12.5455C21.0909 12.0936 20.7246 11.7273 20.2727 11.7273H12.9091ZM12.9091 15C12.4572 15 12.0909 15.3663 12.0909 15.8182C12.0909 16.2701 12.4572 16.6364 12.9091 16.6364H20.2727C20.7246 16.6364 21.0909 16.2701 21.0909 15.8182C21.0909 15.3663 20.7246 15 20.2727 15H12.9091ZM12.0909 19.0909C12.0909 18.639 12.4572 18.2727 12.9091 18.2727H17C17.4519 18.2727 17.8182 18.639 17.8182 19.0909C17.8182 19.5428 17.4519 19.9091 17 19.9091H12.9091C12.4572 19.9091 12.0909 19.5428 12.0909 19.0909Z" fill="white"/>
</svg>
