<svg width="35" height="35" viewBox="0 0 35 35" fill="none" xmlns="http://www.w3.org/2000/svg">
<path fill-rule="evenodd" clip-rule="evenodd" d="M8.65144 31.815L3.53034 34.3474C3.39878 34.4126 3.25545 34.4292 3.11684 34.3951C2.97823 34.3611 2.84998 34.2779 2.74682 34.1551C2.64366 34.0324 2.56979 33.8749 2.53371 33.701C2.49763 33.5271 2.5008 33.3437 2.54286 33.172L3.99521 27.2403C2.05399 24.427 0.914307 20.9962 0.914307 17.2941C0.914307 7.74255 8.50073 0 17.8597 0C27.2164 0 34.8035 7.74255 34.8035 17.2941C34.8035 26.8457 27.2171 34.5882 17.8589 34.5882C14.4639 34.5882 11.3027 33.5695 8.65144 31.815Z" fill="#DCE0E6"/>
<path d="M24.5344 20.4173C25.7141 20.4173 26.6705 19.2129 26.6705 17.7272C26.6705 16.2415 25.7141 15.0371 24.5344 15.0371C23.3546 15.0371 22.3982 16.2415 22.3982 17.7272C22.3982 19.2129 23.3546 20.4173 24.5344 20.4173Z" fill="white"/>
<path fill-rule="evenodd" clip-rule="evenodd" d="M13.3204 20.081H9.0481L11.221 15.3735L13.3204 20.081ZM15.9904 15.3735H19.7282V20.081H15.9904V15.3735Z" fill="white"/>
</svg>
