<svg width="36" height="36" viewBox="0 0 36 36" fill="none" xmlns="http://www.w3.org/2000/svg">
<g clip-path="url(#clip0)">
<path d="M18 0C8.05982 0 0 8.05982 0 18C0 27.9402 8.05982 36 18 36C27.9402 36 36 27.9402 36 18C36 8.05982 27.9402 0 18 0ZM18 32.9464C9.74732 32.9464 3.05357 26.2527 3.05357 18C3.05357 9.74732 9.74732 3.05357 18 3.05357C26.2527 3.05357 32.9464 9.74732 32.9464 18C32.9464 26.2527 26.2527 32.9464 18 32.9464Z" fill="#4E4E4E"/>
<path d="M25.0195 23.0829L19.29 18.9405V8.99632C19.29 8.81954 19.1454 8.6749 18.9686 8.6749H17.036C16.8592 8.6749 16.7146 8.81954 16.7146 8.99632V20.0615C16.7146 20.166 16.7628 20.2624 16.8472 20.3227L23.4927 25.1682C23.6374 25.2727 23.8383 25.2405 23.9427 25.0999L25.0918 23.5329C25.1963 23.3843 25.1642 23.1834 25.0195 23.0829Z" fill="#4E4E4E"/>
</g>
<defs>
<clipPath id="clip0">
<rect width="36" height="36" fill="white"/>
</clipPath>
</defs>
</svg>
