<svg width="36" height="36" viewBox="0 0 36 36" fill="none" xmlns="http://www.w3.org/2000/svg">
<path d="M25.0713 9.95697V8.0284C25.0713 7.85161 24.9266 7.70697 24.7498 7.70697H9.32127C9.14449 7.70697 8.99984 7.85161 8.99984 8.0284V9.95697C8.99984 10.1338 9.14449 10.2784 9.32127 10.2784H24.7498C24.9266 10.2784 25.0713 10.1338 25.0713 9.95697ZM9.32127 13.4927C9.14449 13.4927 8.99984 13.6373 8.99984 13.8141V15.7427C8.99984 15.9195 9.14449 16.0641 9.32127 16.0641H16.7141C16.8909 16.0641 17.0356 15.9195 17.0356 15.7427V13.8141C17.0356 13.6373 16.8909 13.4927 16.7141 13.4927H9.32127ZM15.107 31.6534H5.78556V3.36768H28.2856V17.1891C28.2856 17.3659 28.4302 17.5105 28.607 17.5105H30.857C31.0338 17.5105 31.1784 17.3659 31.1784 17.1891V1.76054C31.1784 1.04938 30.6039 0.474823 29.8927 0.474823H4.17841C3.46725 0.474823 2.8927 1.04938 2.8927 1.76054V33.2605C2.8927 33.9717 3.46725 34.5463 4.17841 34.5463H15.107C15.2838 34.5463 15.4284 34.4016 15.4284 34.2248V31.9748C15.4284 31.798 15.2838 31.6534 15.107 31.6534ZM33.0146 33.7226L29.2659 29.9739C30.1619 28.7887 30.6963 27.3101 30.6963 25.707C30.6963 21.8016 27.5302 18.6355 23.6248 18.6355C19.7195 18.6355 16.5534 21.8016 16.5534 25.707C16.5534 29.6123 19.7195 32.7784 23.6248 32.7784C25.0632 32.7784 26.3972 32.3485 27.5141 31.6132L31.319 35.4181C31.3833 35.4824 31.4637 35.5105 31.544 35.5105C31.6244 35.5105 31.7088 35.4784 31.769 35.4181L33.0146 34.1726C33.0442 34.1431 33.0677 34.108 33.0838 34.0694C33.0998 34.0308 33.1081 33.9894 33.1081 33.9476C33.1081 33.9058 33.0998 33.8644 33.0838 33.8258C33.0677 33.7871 33.0442 33.7521 33.0146 33.7226ZM23.6248 30.207C21.1378 30.207 19.1248 28.194 19.1248 25.707C19.1248 23.2199 21.1378 21.207 23.6248 21.207C26.1119 21.207 28.1248 23.2199 28.1248 25.707C28.1248 28.194 26.1119 30.207 23.6248 30.207Z" fill="#4E4E4E"/>
</svg>
