<svg width="32" height="34" viewBox="0 0 32 34" fill="none" xmlns="http://www.w3.org/2000/svg">
<path fill-rule="evenodd" clip-rule="evenodd" d="M9.89223 3.81778H22.1065V6.71064H9.89223V3.81778ZM24.9994 6.71064V3.49636C24.9994 2.07805 23.8463 0.924927 22.4279 0.924927H9.5708C8.1525 0.924927 6.99937 2.07805 6.99937 3.49636V6.71064H1.85652C1.14535 6.71064 0.570801 7.2852 0.570801 7.99636V9.28207C0.570801 9.45886 0.715444 9.6035 0.892229 9.6035H3.31902L4.31143 30.6169C4.37571 31.987 5.50875 33.0678 6.87884 33.0678H25.1199C26.494 33.0678 27.623 31.991 27.6873 30.6169L28.6797 9.6035H31.1065C31.2833 9.6035 31.4279 9.45886 31.4279 9.28207V7.99636C31.4279 7.2852 30.8534 6.71064 30.1422 6.71064H24.9994ZM9 13.275C9 12.5708 9.67157 12 10.5 12C11.3284 12 12 12.5708 12 13.275V27.725C12 28.4292 11.3284 29 10.5 29C9.67157 29 9 28.4292 9 27.725V13.275ZM21.5 12C20.6716 12 20 12.5708 20 13.275V27.725C20 28.4292 20.6716 29 21.5 29C22.3284 29 23 28.4292 23 27.725V13.275C23 12.5708 22.3284 12 21.5 12Z" fill="#4E4E4E"/>
</svg>
