<svg width="36" height="36" viewBox="0 0 36 36" fill="none" xmlns="http://www.w3.org/2000/svg">
<path d="M34.0727 5.14529H10.6084C10.4316 5.14529 10.287 5.28994 10.287 5.46672V7.71672C10.287 7.89351 10.4316 8.03815 10.6084 8.03815H34.0727C34.2495 8.03815 34.3941 7.89351 34.3941 7.71672V5.46672C34.3941 5.28994 34.2495 5.14529 34.0727 5.14529ZM34.0727 16.556H10.6084C10.4316 16.556 10.287 16.7007 10.287 16.8774V19.1274C10.287 19.3042 10.4316 19.4489 10.6084 19.4489H34.0727C34.2495 19.4489 34.3941 19.3042 34.3941 19.1274V16.8774C34.3941 16.7007 34.2495 16.556 34.0727 16.556ZM34.0727 27.9667H10.6084C10.4316 27.9667 10.287 28.1114 10.287 28.2882V30.5382C10.287 30.7149 10.4316 30.8596 10.6084 30.8596H34.0727C34.2495 30.8596 34.3941 30.7149 34.3941 30.5382V28.2882C34.3941 28.1114 34.2495 27.9667 34.0727 27.9667Z" fill="#4E4E4E"/>
<path d="M7.0956 2H8.87551C9.13667 2 9.28935 2.29732 9.13265 2.51027L4.54426 8.85848C4.41569 9.03527 4.15453 9.03527 4.02595 8.85848L1.06078 4.75625C0.908098 4.5433 1.06078 4.24598 1.32194 4.24598H3.09381C3.14478 4.24555 3.19511 4.25737 3.24055 4.28044C3.286 4.30352 3.32524 4.33717 3.35497 4.37857L4.2831 5.66027L6.83444 2.13259C6.89471 2.04821 6.99113 2 7.0956 2Z" fill="#4E4E4E"/>
<path d="M7.0956 14H8.87551C9.13667 14 9.28935 14.2973 9.13265 14.5103L4.54426 20.8585C4.41569 21.0353 4.15453 21.0353 4.02595 20.8585L1.06078 16.7562C0.908098 16.5433 1.06078 16.246 1.32194 16.246H3.09381C3.14478 16.2456 3.19511 16.2574 3.24055 16.2804C3.286 16.3035 3.32524 16.3372 3.35497 16.3786L4.2831 17.6603L6.83444 14.1326C6.89471 14.0482 6.99113 14 7.0956 14Z" fill="#4E4E4E"/>
<path d="M7.0956 26H8.87551C9.13667 26 9.28935 26.2973 9.13265 26.5103L4.54426 32.8585C4.41569 33.0353 4.15453 33.0353 4.02595 32.8585L1.06078 28.7562C0.908098 28.5433 1.06078 28.246 1.32194 28.246H3.09381C3.14478 28.2456 3.19511 28.2574 3.24055 28.2804C3.286 28.3035 3.32524 28.3372 3.35497 28.3786L4.2831 29.6603L6.83444 26.1326C6.89471 26.0482 6.99113 26 7.0956 26Z" fill="#4E4E4E"/>
</svg>
