<svg width="35" height="35" viewBox="0 0 35 35" fill="none" xmlns="http://www.w3.org/2000/svg">
<path fill-rule="evenodd" clip-rule="evenodd" d="M3.0301 34.3474L8.1512 31.815C10.8025 33.5695 13.9636 34.5882 17.3587 34.5882C26.7169 34.5882 34.3033 26.8457 34.3033 17.2941C34.3033 7.74255 26.7161 0 17.3594 0C8.00048 0 0.414062 7.74255 0.414062 17.2941C0.414062 20.9962 1.55375 24.427 3.49497 27.2403L2.04261 33.172C2.00055 33.3437 1.99738 33.5271 2.03346 33.701C2.06954 33.8749 2.14341 34.0324 2.24657 34.1551C2.34973 34.2779 2.47799 34.3611 2.6166 34.3951C2.75521 34.4292 2.89854 34.4126 3.0301 34.3474ZM26.1703 17.727C26.1703 19.2127 25.2139 20.4172 24.0341 20.4172C22.8544 20.4172 21.898 19.2127 21.898 17.727C21.898 16.2413 22.8544 15.0369 24.0341 15.0369C25.2139 15.0369 26.1703 16.2413 26.1703 17.727ZM8.54785 20.0808H12.8202L10.7208 15.3733L8.54785 20.0808ZM19.2279 15.3733H15.4902V20.0808H19.2279V15.3733Z" fill="#E8E8E8"/>
</svg>
