<svg width="36" height="36" viewBox="0 0 36 36" fill="none" xmlns="http://www.w3.org/2000/svg">
<path d="M32.7195 13.1899L22.8195 3.28994C22.5583 3.02878 22.2168 2.90021 21.8753 2.90021C21.5338 2.90021 21.1922 3.02878 20.9311 3.28994L14.4583 9.76673C13.9681 9.71048 13.4739 9.68637 12.9797 9.68637C10.0387 9.68637 7.0976 10.6547 4.68287 12.5913C4.53665 12.7087 4.41679 12.8556 4.33112 13.0224C4.24545 13.1892 4.19589 13.3722 4.18565 13.5595C4.17542 13.7467 4.20475 13.934 4.27172 14.1092C4.3387 14.2844 4.44183 14.4435 4.57439 14.5761L11.8748 21.8765L3.22037 30.523C3.11432 30.6284 3.04887 30.7678 3.03555 30.9167L2.89894 32.4114C2.86278 32.789 3.16412 33.1105 3.53778 33.1105C3.55787 33.1105 3.57796 33.1105 3.59805 33.1065L5.09269 32.9699C5.24135 32.9578 5.38198 32.8895 5.48644 32.785L14.1409 24.1306L21.4414 31.431C21.7025 31.6922 22.044 31.8207 22.3855 31.8207C22.7753 31.8207 23.161 31.652 23.4262 31.3225C25.6882 28.498 26.6284 24.9623 26.2467 21.5431L32.7195 15.0703C33.2378 14.556 33.2378 13.7123 32.7195 13.1899Z" fill="#4E4E4E"/>
</svg>
