<svg width="36" height="36" viewBox="0 0 36 36" fill="none" xmlns="http://www.w3.org/2000/svg">
<path d="M25.0723 9.95697V8.0284C25.0723 7.85161 24.9277 7.70697 24.7509 7.70697H9.32234C9.14555 7.70697 9.00091 7.85161 9.00091 8.0284V9.95697C9.00091 10.1338 9.14555 10.2784 9.32234 10.2784H24.7509C24.9277 10.2784 25.0723 10.1338 25.0723 9.95697ZM9.32234 13.4927C9.14555 13.4927 9.00091 13.6373 9.00091 13.8141V15.7427C9.00091 15.9195 9.14555 16.0641 9.32234 16.0641H16.7152C16.892 16.0641 17.0366 15.9195 17.0366 15.7427V13.8141C17.0366 13.6373 16.892 13.4927 16.7152 13.4927H9.32234ZM24.4295 18.1534C19.6362 18.1534 15.7509 22.0387 15.7509 26.832C15.7509 31.6253 19.6362 35.5105 24.4295 35.5105C29.2228 35.5105 33.1081 31.6253 33.1081 26.832C33.1081 22.0387 29.2228 18.1534 24.4295 18.1534ZM28.7487 31.1512C27.5956 32.3043 26.0607 32.9391 24.4295 32.9391C22.7982 32.9391 21.2634 32.3043 20.1103 31.1512C18.9572 29.998 18.3223 28.4632 18.3223 26.832C18.3223 25.2007 18.9572 23.6659 20.1103 22.5128C21.2634 21.3596 22.7982 20.7248 24.4295 20.7248C26.0607 20.7248 27.5956 21.3596 28.7487 22.5128C29.9018 23.6659 30.5366 25.2007 30.5366 26.832C30.5366 28.4632 29.9018 29.998 28.7487 31.1512ZM28.0054 23.7784H26.2255C26.121 23.7784 26.0246 23.8266 25.9643 23.911L23.413 27.4387L22.4848 26.157C22.4551 26.1156 22.4159 26.0819 22.3704 26.0588C22.325 26.0358 22.2746 26.0239 22.2237 26.0244H20.4518C20.1906 26.0244 20.038 26.3217 20.1906 26.5346L23.1558 30.6369C23.2844 30.8137 23.5456 30.8137 23.6741 30.6369L28.2625 24.2887C28.4192 24.0757 28.2665 23.7784 28.0054 23.7784ZM15.1081 31.6534H5.78663V3.36768H28.2866V17.1891C28.2866 17.3659 28.4313 17.5105 28.6081 17.5105H30.8581C31.0348 17.5105 31.1795 17.3659 31.1795 17.1891V1.76054C31.1795 1.04938 30.6049 0.474823 29.8938 0.474823H4.17948C3.46832 0.474823 2.89377 1.04938 2.89377 1.76054V33.2605C2.89377 33.9717 3.46832 34.5463 4.17948 34.5463H15.1081C15.2848 34.5463 15.4295 34.4016 15.4295 34.2248V31.9748C15.4295 31.798 15.2848 31.6534 15.1081 31.6534Z" fill="#4E4E4E"/>
</svg>
