<svg width="36" height="36" viewBox="0 0 36 36" fill="none" xmlns="http://www.w3.org/2000/svg">
<path fill-rule="evenodd" clip-rule="evenodd" d="M18 11C19.6569 11 21 9.65685 21 8C21 6.34315 19.6569 5 18 5C16.3432 5 15 6.34315 15 8C15 9.65685 16.3432 11 18 11ZM21.1414 16.4C21.1719 16.4 21.2023 16.4007 21.2325 16.4021C22.1012 16.4414 22.8498 17.0399 23.0746 17.8871L26.6933 31.5271C27.03 32.7962 26.0732 34.04 24.7602 34.04H10.8798C9.5668 34.04 8.60998 32.7962 8.94668 31.5271L12.5655 17.8871C12.7981 17.0104 13.5915 16.4 14.4986 16.4H21.1414ZM15.3816 13.4C13.3799 12.4276 12 10.3749 12 8C12 4.68629 14.6863 2 18 2C21.3137 2 24 4.68629 24 8C24 10.3749 22.6202 12.4276 20.6185 13.4C19.8272 13.7844 18.9388 14 18 14C17.0612 14 16.1728 13.7844 15.3816 13.4ZM23.4603 31.04L20.3721 19.4H15.2679L12.1797 31.04H23.4603Z" fill="#4E4E4E"/>
</svg>
