<svg width="36" height="36" viewBox="0 0 36 36" fill="none" xmlns="http://www.w3.org/2000/svg">
<path d="M33.7506 17.9963H31.5006C31.3238 17.9963 31.1792 18.141 31.1792 18.3178V31.1749H4.82206V4.81777H17.6792C17.856 4.81777 18.0006 4.67313 18.0006 4.49634V2.24634C18.0006 2.06955 17.856 1.92491 17.6792 1.92491H3.21491C2.50375 1.92491 1.9292 2.49947 1.9292 3.21063V32.7821C1.9292 33.4932 2.50375 34.0678 3.21491 34.0678H32.7863C33.4975 34.0678 34.0721 33.4932 34.0721 32.7821V18.3178C34.0721 18.141 33.9274 17.9963 33.7506 17.9963Z" fill="#4E4E4E"/>
<path d="M35.4214 4.58824C34.65 3.80392 33.4929 3.80392 32.7214 4.58824L18.2571 19.2941L12.2786 13.2157C11.5071 12.4314 10.35 12.4314 9.57857 13.2157C8.80714 14 8.80714 15.1765 9.57857 15.9608L16.9071 23.4118C17.2929 23.8039 17.6786 24 18.2571 24C18.8357 24 19.2214 23.8039 19.6071 23.4118L35.4214 7.33333C36.1929 6.54902 36.1929 5.37255 35.4214 4.58824Z" fill="#4E4E4E"/>
</svg>
