<svg width="36" height="30" viewBox="0 0 36 30" fill="none" xmlns="http://www.w3.org/2000/svg">
<path d="M3 6H0V13.5H0.015L0 27C0 28.65 1.35 30 3 30H30V27H3V6ZM33 3H21L18 0H9C7.35 0 6.015 1.35 6.015 3L6 21C6 22.65 7.35 24 9 24H33C34.65 24 36 22.65 36 21V6C36 4.35 34.65 3 33 3ZM33 21H9V3H16.755L19.755 6H33V21Z" fill="#4E4E4E"/>
<path d="M18.6604 8.07991L25.8457 13.2109C26.0514 13.3578 26.0514 13.6406 25.8457 13.7891L18.6604 18.9201C18.3925 19.1107 18 18.9388 18 18.631V8.36896C18 8.06116 18.3925 7.88929 18.6604 8.07991Z" fill="#4E4E4E"/>
</svg>
