<svg width="34" height="34" viewBox="0 0 34 34" fill="none" xmlns="http://www.w3.org/2000/svg">
<path d="M29.5445 24.5554C28.5388 23.5489 27.3637 22.7274 26.073 22.1286C27.8931 20.654 29.0543 18.404 29.0543 15.8808C29.0543 11.429 25.3418 7.77678 20.89 7.84508C16.5065 7.91339 12.9748 11.4853 12.9748 15.8808C12.9748 18.404 14.14 20.654 15.9561 22.1286C14.6652 22.7269 13.49 23.5485 12.4847 24.5554C10.2909 26.7531 9.04537 29.654 8.96501 32.7478C8.96394 32.7906 8.97146 32.8333 8.98714 32.8732C9.00281 32.9132 9.02631 32.9496 9.05627 32.9803C9.08622 33.011 9.12202 33.0354 9.16155 33.052C9.20108 33.0687 9.24355 33.0772 9.28644 33.0772H11.5364C11.7092 33.0772 11.8539 32.9406 11.8579 32.7679C11.9342 30.4375 12.8784 28.2558 14.5378 26.6004C15.3869 25.7468 16.3969 25.07 17.5094 24.6093C18.6218 24.1486 19.8145 23.9132 21.0186 23.9165C23.4655 23.9165 25.7677 24.8687 27.4994 26.6004C29.1547 28.2558 30.0989 30.4375 30.1793 32.7679C30.1833 32.9406 30.328 33.0772 30.5007 33.0772H32.7507C32.7936 33.0772 32.8361 33.0687 32.8756 33.052C32.9151 33.0354 32.9509 33.011 32.9809 32.9803C33.0109 32.9496 33.0344 32.9132 33.05 32.8732C33.0657 32.8333 33.0732 32.7906 33.0722 32.7478C32.9918 29.654 31.7463 26.7531 29.5445 24.5554ZM21.0186 21.0237C19.6445 21.0237 18.3507 20.4893 17.3824 19.517C16.8965 19.0348 16.5126 18.4598 16.2538 17.8261C15.9949 17.1924 15.8663 16.513 15.8757 15.8286C15.8878 14.5107 16.4141 13.237 17.3342 12.2929C18.2985 11.3045 19.5882 10.754 20.9664 10.7379C22.3284 10.7259 23.6503 11.2562 24.6226 12.2085C25.619 13.1848 26.1655 14.4906 26.1655 15.8808C26.1655 17.2549 25.6311 18.5446 24.6588 19.517C24.1817 19.9963 23.6144 20.3762 22.9896 20.6349C22.3647 20.8935 21.6948 21.0256 21.0186 21.0237ZM10.9539 16.9415C10.9177 16.592 10.8976 16.2384 10.8976 15.8808C10.8976 15.242 10.9579 14.6192 11.0704 14.0125C11.0985 13.8679 11.0222 13.7192 10.8896 13.6589C10.3431 13.4138 9.84091 13.0763 9.40698 12.6504C8.89567 12.1547 8.49331 11.5578 8.22559 10.8978C7.95786 10.2378 7.83065 9.52929 7.85207 8.81741C7.88823 7.52767 8.40653 6.30223 9.31055 5.37812C10.303 4.3616 11.6369 3.80714 13.0552 3.82321C14.3369 3.83526 15.5744 4.32946 16.5105 5.20535C16.828 5.50267 17.1012 5.83214 17.3302 6.18571C17.4105 6.31026 17.5672 6.36249 17.7039 6.31428C18.411 6.06919 19.1583 5.89642 19.9257 5.81607C20.1507 5.79196 20.2793 5.55089 20.1789 5.34999C18.873 2.76651 16.2052 0.982583 13.1195 0.934369C8.66367 0.866065 4.95117 4.5183 4.95117 8.96607C4.95117 11.4893 6.11233 13.7393 7.93242 15.2138C6.65475 15.8045 5.47751 16.6201 4.45698 17.6406C2.25519 19.8384 1.00966 22.7393 0.9293 25.837C0.928227 25.8799 0.935749 25.9226 0.951421 25.9625C0.967094 26.0025 0.9906 26.0388 1.02055 26.0695C1.05051 26.1003 1.08631 26.1246 1.12584 26.1413C1.16537 26.158 1.20783 26.1665 1.25073 26.1665H3.50475C3.67751 26.1665 3.82216 26.0299 3.82617 25.8571C3.90251 23.5268 4.84671 21.3451 6.50609 19.6897C7.68734 18.5085 9.13376 17.6888 10.7128 17.2911C10.8695 17.2509 10.9739 17.1022 10.9539 16.9415Z" fill="#4E4E4E"/>
</svg>
