<svg width="31" height="28" viewBox="0 0 31 28" fill="none" xmlns="http://www.w3.org/2000/svg">
<path d="M28.2399 3.5C26.6499 1.90582 24.5421 0.932814 22.2974 0.756759C20.0527 0.580704 17.8191 1.2132 15.9999 2.54C14.0914 1.12046 11.7159 0.476771 9.35181 0.73856C6.9877 1.00035 4.81059 2.14817 3.25889 3.95088C1.70719 5.75359 0.896158 8.07728 0.989127 10.454C1.08209 12.8308 2.07215 15.084 3.75992 16.76L13.0749 26.09C13.855 26.8577 14.9055 27.2879 15.9999 27.2879C17.0943 27.2879 18.1449 26.8577 18.9249 26.09L28.2399 16.76C29.9913 14.9979 30.9743 12.6144 30.9743 10.13C30.9743 7.64559 29.9913 5.2621 28.2399 3.5ZM26.1249 14.69L16.8099 24.005C16.7039 24.112 16.5778 24.197 16.4387 24.255C16.2997 24.313 16.1506 24.3428 15.9999 24.3428C15.8493 24.3428 15.7001 24.313 15.5611 24.255C15.4221 24.197 15.2959 24.112 15.1899 24.005L5.87493 14.645C4.69856 13.4425 4.03984 11.8272 4.03984 10.145C4.03984 8.46281 4.69856 6.84749 5.87493 5.645C7.07366 4.46149 8.69038 3.79786 10.3749 3.79786C12.0595 3.79786 13.6762 4.46149 14.8749 5.645C15.0144 5.7856 15.1803 5.89719 15.3631 5.97334C15.5458 6.04949 15.7419 6.0887 15.9399 6.0887C16.1379 6.0887 16.334 6.04949 16.5168 5.97334C16.6996 5.89719 16.8655 5.7856 17.0049 5.645C18.2037 4.46149 19.8204 3.79786 21.5049 3.79786C23.1895 3.79786 24.8062 4.46149 26.0049 5.645C27.1975 6.83173 27.8778 8.43829 27.9002 10.1205C27.9227 11.8028 27.2854 13.4269 26.1249 14.645V14.69Z" fill="#4E4E4E"/>
</svg>
