<svg width="36" height="36" viewBox="0 0 36 36" fill="none" xmlns="http://www.w3.org/2000/svg">
<path d="M24.3323 6.29758C22.6387 4.8129 20.4032 4 18.0323 4C15.6613 4 13.4258 4.81855 11.7323 6.29758C9.97097 7.83871 9 9.91048 9 12.129V12.5581C9 12.8065 9.20323 13.0097 9.45161 13.0097H12.1613C12.4097 13.0097 12.6129 12.8065 12.6129 12.5581V12.129C12.6129 9.63952 15.046 7.6129 18.0323 7.6129C21.0185 7.6129 23.4516 9.63952 23.4516 12.129C23.4516 13.8847 22.2097 15.4935 20.2847 16.2331C19.0879 16.6903 18.0718 17.4919 17.3435 18.5419C16.604 19.6145 16.2202 20.9016 16.2202 22.2056V23.4194C16.2202 23.6677 16.4234 23.871 16.6718 23.871H19.3815C19.6298 23.871 19.8331 23.6677 19.8331 23.4194V22.1379C19.836 21.5899 20.004 21.0555 20.3151 20.6043C20.6263 20.1532 21.0662 19.8063 21.5774 19.6089C24.9081 18.3274 27.0589 15.3919 27.0589 12.129C27.0645 9.91048 26.0935 7.83871 24.3323 6.29758ZM15.7742 29.7419C15.7742 30.3408 16.0121 30.9152 16.4356 31.3386C16.859 31.7621 17.4334 32 18.0323 32C18.6311 32 19.2055 31.7621 19.629 31.3386C20.0524 30.9152 20.2903 30.3408 20.2903 29.7419C20.2903 29.1431 20.0524 28.5687 19.629 28.1452C19.2055 27.7218 18.6311 27.4839 18.0323 27.4839C17.4334 27.4839 16.859 27.7218 16.4356 28.1452C16.0121 28.5687 15.7742 29.1431 15.7742 29.7419Z" fill="black" fill-opacity="0.65"/>
</svg>
