<svg width="22" height="30" viewBox="0 0 22 30" fill="none" xmlns="http://www.w3.org/2000/svg">
<path d="M20 0H2C1.60218 0 1.22064 0.158035 0.93934 0.43934C0.658036 0.720644 0.5 1.10218 0.5 1.5V28.5C0.499981 28.7867 0.582153 29.0675 0.736781 29.309C0.891409 29.5505 1.11201 29.7426 1.37246 29.8625C1.63291 29.9825 1.92228 30.0253 2.2063 29.9858C2.49033 29.9464 2.75709 29.8264 2.975 29.64L11 22.905L18.935 29.565C19.0752 29.704 19.2414 29.814 19.4241 29.8887C19.6069 29.9633 19.8026 30.0011 20 30C20.1968 30.0051 20.392 29.964 20.57 29.88C20.8439 29.7675 21.0784 29.5764 21.2439 29.3308C21.4094 29.0852 21.4985 28.7961 21.5 28.5V1.5C21.5 1.10218 21.342 0.720644 21.0607 0.43934C20.7794 0.158035 20.3978 0 20 0ZM18.5 25.29L11.96 19.8C11.6905 19.5755 11.3508 19.4526 11 19.4526C10.6492 19.4526 10.3095 19.5755 10.04 19.8L3.5 25.29V3H18.5V25.29Z" fill="#4E4E4E"/>
</svg>
