<svg width="36" height="36" viewBox="0 0 36 36" fill="none" xmlns="http://www.w3.org/2000/svg">
<path d="M7.78212 27.6392C7.86248 27.6392 7.94283 27.6312 8.02319 27.6191L14.7812 26.4338C14.8616 26.4178 14.9379 26.3816 14.9942 26.3213L32.0259 9.28964C32.0631 9.25247 32.0927 9.20832 32.1128 9.15972C32.133 9.11111 32.1434 9.05901 32.1434 9.00639C32.1434 8.95376 32.133 8.90166 32.1128 8.85305C32.0927 8.80445 32.0631 8.7603 32.0259 8.72313L25.3482 2.04143C25.2719 1.96509 25.1714 1.92491 25.0629 1.92491C24.9544 1.92491 24.854 1.96509 24.7777 2.04143L7.74596 19.0731C7.68569 19.1334 7.64953 19.2057 7.63346 19.2861L6.44819 26.0441C6.4091 26.2593 6.42307 26.4809 6.48888 26.6895C6.55469 26.8981 6.67036 27.0876 6.82587 27.2414C7.09105 27.4986 7.42453 27.6392 7.78212 27.6392ZM10.4902 20.6321L25.0629 6.0633L28.008 9.00839L13.4352 23.5771L9.86337 24.2079L10.4902 20.6321ZM32.7852 31.0142H3.21381C2.50265 31.0142 1.9281 31.5888 1.9281 32.2999V33.7463C1.9281 33.9231 2.07274 34.0678 2.24953 34.0678H33.7495C33.9263 34.0678 34.071 33.9231 34.071 33.7463V32.2999C34.071 31.5888 33.4964 31.0142 32.7852 31.0142Z" fill="#4E4E4E"/>
</svg>
