<svg width="36" height="36" viewBox="0 0 36 36" fill="none" xmlns="http://www.w3.org/2000/svg">
<path d="M33.7506 17.9963H31.5006C31.3238 17.9963 31.1792 18.141 31.1792 18.3178V31.1749H4.82206V4.81777H17.6792C17.856 4.81777 18.0006 4.67313 18.0006 4.49634V2.24634C18.0006 2.06955 17.856 1.92491 17.6792 1.92491H3.21491C2.50375 1.92491 1.9292 2.49947 1.9292 3.21063V32.7821C1.9292 33.4932 2.50375 34.0678 3.21491 34.0678H32.7863C33.4975 34.0678 34.0721 33.4932 34.0721 32.7821V18.3178C34.0721 18.141 33.9274 17.9963 33.7506 17.9963Z" fill="#4E4E4E"/>
<path d="M11.7285 18.9164L11.6521 23.6937C11.6481 24.0513 11.9374 24.3446 12.295 24.3446H12.3111L17.0521 24.228C17.1325 24.224 17.2129 24.1919 17.2691 24.1356L33.9794 7.46152C34.1039 7.33697 34.1039 7.13205 33.9794 7.0075L28.9852 2.01732C28.9209 1.95304 28.8405 1.92491 28.7562 1.92491C28.6718 1.92491 28.5914 1.95705 28.5271 2.01732L11.8209 18.6914C11.7629 18.7521 11.7299 18.8325 11.7285 18.9164ZM14.2798 19.8646L28.7562 5.42045L30.5722 7.2325L16.0879 21.6847L14.2517 21.7289L14.2798 19.8646Z" fill="#4E4E4E"/>
</svg>
