<svg width="36" height="36" viewBox="0 0 36 36" fill="none" xmlns="http://www.w3.org/2000/svg">
<path fill-rule="evenodd" clip-rule="evenodd" d="M18 11C19.6568 11 21 9.65685 21 8C21 6.34315 19.6568 5 18 5C16.3431 5 15 6.34315 15 8C15 9.65685 16.3431 11 18 11ZM24.7602 16.4C26.0732 16.4 27.03 17.6438 26.6933 18.9129L23.0746 32.5529C22.842 33.4296 22.0485 34.04 21.1414 34.04H14.4986C13.5915 34.04 12.7981 33.4296 12.5655 32.5529L8.94668 18.9129C8.60998 17.6438 9.5668 16.4 10.8798 16.4H24.7602ZM15.3815 13.4C13.3798 12.4276 12 10.3749 12 8C12 4.68629 14.6863 2 18 2C21.3137 2 24 4.68629 24 8C24 10.3749 22.6202 12.4276 20.6185 13.4C19.8272 13.7844 18.9388 14 18 14C17.0612 14 16.1727 13.7844 15.3815 13.4ZM12.1797 19.4L15.2679 31.04H20.3721L23.4603 19.4H12.1797Z" fill="#4E4E4E"/>
</svg>
