<svg width="36" height="36" viewBox="0 0 36 36" fill="none" xmlns="http://www.w3.org/2000/svg">
<path d="M18 3C9.71652 3 3 9.71652 3 18C3 26.2835 9.71652 33 18 33C26.2835 33 33 26.2835 33 18C33 9.71652 26.2835 3 18 3ZM18 30.4554C11.1228 30.4554 5.54464 24.8772 5.54464 18C5.54464 11.1228 11.1228 5.54464 18 5.54464C24.8772 5.54464 30.4554 11.1228 30.4554 18C30.4554 24.8772 24.8772 30.4554 18 30.4554Z" fill="#23295A"/>
<path d="M16.3923 23.8929C16.3923 24.3191 16.5617 24.7279 16.8631 25.0293C17.1645 25.3307 17.5732 25.5 17.9995 25.5C18.4257 25.5 18.8345 25.3307 19.1359 25.0293C19.4373 24.7279 19.6066 24.3191 19.6066 23.8929C19.6066 23.4666 19.4373 23.0578 19.1359 22.7564C18.8345 22.455 18.4257 22.2857 17.9995 22.2857C17.5732 22.2857 17.1645 22.455 16.8631 22.7564C16.5617 23.0578 16.3923 23.4666 16.3923 23.8929ZM17.1959 20.1429H18.8031C18.9504 20.1429 19.0709 20.0223 19.0709 19.875V10.7679C19.0709 10.6205 18.9504 10.5 18.8031 10.5H17.1959C17.0486 10.5 16.9281 10.6205 16.9281 10.7679V19.875C16.9281 20.0223 17.0486 20.1429 17.1959 20.1429Z" fill="#23295A"/>
</svg>
