<svg width="36" height="36" viewBox="0 0 36 36" fill="none" xmlns="http://www.w3.org/2000/svg">
<path fill-rule="evenodd" clip-rule="evenodd" d="M3 18C3 9.71652 9.71652 3 18 3C26.2835 3 33 9.71652 33 18C33 26.2835 26.2835 33 18 33C9.71652 33 3 26.2835 3 18ZM5.54464 18C5.54464 24.8772 11.1228 30.4554 18 30.4554C24.8772 30.4554 30.4554 24.8772 30.4554 18C30.4554 11.1228 24.8772 5.54464 18 5.54464C11.1228 5.54464 5.54464 11.1228 5.54464 18ZM16.8631 13.2436C16.5617 12.9422 16.3923 12.5334 16.3923 12.1071C16.3923 11.6809 16.5617 11.2721 16.8631 10.9707C17.1645 10.6693 17.5732 10.5 17.9995 10.5C18.4257 10.5 18.8345 10.6693 19.1359 10.9707C19.4373 11.2721 19.6066 11.6809 19.6066 12.1071C19.6066 12.5334 19.4373 12.9422 19.1359 13.2436C18.8345 13.545 18.4257 13.7143 17.9995 13.7143C17.5732 13.7143 17.1645 13.545 16.8631 13.2436ZM16.9281 16.125C16.9281 15.9777 17.0486 15.8571 17.1959 15.8571H18.8031C18.9504 15.8571 19.0709 15.9777 19.0709 16.125V25.2321C19.0709 25.3795 18.9504 25.5 18.8031 25.5H17.1959C17.0486 25.5 16.9281 25.3795 16.9281 25.2321V16.125Z" fill="#23295A"/>
</svg>
