<svg width="16" height="14" viewBox="0 0 16 14" fill="none" xmlns="http://www.w3.org/2000/svg">
<path d="M15.4286 0.710938H0.571429C0.255357 0.710938 0 0.966295 0 1.28237V12.7109C0 13.027 0.255357 13.2824 0.571429 13.2824H15.4286C15.7446 13.2824 16 13.027 16 12.7109V1.28237C16 0.966295 15.7446 0.710938 15.4286 0.710938ZM14.7143 11.9967H1.28571V1.99665H14.7143V11.9967Z" fill="#4E4E4E"/>
<path d="M6.55243 4.37198L10.1451 6.85976C10.2479 6.93097 10.2479 7.06809 10.1451 7.14005L6.55243 9.62783C6.41846 9.72025 6.22222 9.63692 6.22222 9.48768V4.51213C6.22222 4.36289 6.41846 4.27956 6.55243 4.37198Z" fill="#4E4E4E"/>
</svg>
