<svg width="36" height="36" viewBox="0 0 36 36" fill="none" xmlns="http://www.w3.org/2000/svg">
<path d="M22.6907 12.6753H24.2611C24.4787 12.6753 24.6059 12.9231 24.4753 13.1005L17.424 22.8773C17.3255 23.0149 17.1955 23.127 17.045 23.2043C16.8945 23.2816 16.7277 23.3219 16.5585 23.3219C16.3893 23.3219 16.2225 23.2816 16.072 23.2043C15.9215 23.127 15.7915 23.0149 15.693 22.8773L11.5211 17.0916C11.3939 16.9141 11.5211 16.6664 11.7387 16.6664H13.3091C13.6539 16.6664 13.9753 16.8338 14.1762 17.1117L16.5602 20.4197L21.8236 13.1206C22.0245 12.8394 22.3492 12.6753 22.6907 12.6753Z" fill="#23295A"/>
<path d="M18 3C9.71652 3 3 9.71652 3 18C3 26.2835 9.71652 33 18 33C26.2835 33 33 26.2835 33 18C33 9.71652 26.2835 3 18 3ZM18 30.4554C11.1228 30.4554 5.54464 24.8772 5.54464 18C5.54464 11.1228 11.1228 5.54464 18 5.54464C24.8772 5.54464 30.4554 11.1228 30.4554 18C30.4554 24.8772 24.8772 30.4554 18 30.4554Z" fill="#23295A"/>
</svg>
