<svg width="16" height="16" viewBox="0 0 16 16" fill="none" xmlns="http://www.w3.org/2000/svg">
<path d="M14.7778 7.11089H8.88892V1.22201C8.88892 1.03867 8.73892 0.888672 8.55558 0.888672H7.44447C7.26114 0.888672 7.11114 1.03867 7.11114 1.22201V7.11089H1.22225C1.03892 7.11089 0.888916 7.26089 0.888916 7.44423V8.55534C0.888916 8.73867 1.03892 8.88867 1.22225 8.88867H7.11114V14.7776C7.11114 14.9609 7.26114 15.1109 7.44447 15.1109H8.55558C8.73892 15.1109 8.88892 14.9609 8.88892 14.7776V8.88867H14.7778C14.9611 8.88867 15.1111 8.73867 15.1111 8.55534V7.44423C15.1111 7.26089 14.9611 7.11089 14.7778 7.11089Z" fill="#4E4E4E"/>
</svg>
