<svg width="36" height="36" viewBox="0 0 36 36" fill="none" xmlns="http://www.w3.org/2000/svg">
<path d="M20.4785 7.57129C14.4035 5.35745 5.51603 1.31147 5.51603 1.31147C4.88523 1.14673 4.79683 1.75745 4.79683 1.75745C4.59594 4.21236 6.14683 8.20611 6.95041 9.10209C7.74996 9.99807 19.7714 13.6704 19.7714 13.6704C19.7714 13.6704 10.5263 11.8061 8.29639 11.1633C6.06246 10.5204 6.77362 11.8784 6.77362 11.8784C7.23166 14.3575 9.38121 17.174 11.0808 17.4391C12.7763 17.7043 19.9241 17.5999 19.9241 17.5999C19.9241 17.5999 18.4977 17.7646 16.1794 18.078C14.4638 18.311 12.2821 18.5802 11.7156 18.7932C10.3857 19.2954 12.6799 21.3083 12.6799 21.3083C16.083 24.3941 17.891 23.3374 17.891 23.3374C19.229 22.9074 20.358 22.5941 21.3142 22.365L20.129 27.2829H23.5281L21.6558 34.7119L29.9044 23.7874H25.5852L26.4812 22.2325C26.4933 22.2525 26.4973 22.2646 26.4973 22.2646C26.4973 22.2646 29.5629 17.3588 30.7361 14.8557L30.7602 14.8155H30.7562C30.9571 14.3816 31.1017 14.024 31.158 13.7789C31.841 10.9141 26.5576 9.78513 20.4785 7.57129Z" fill="#4E4E4E"/>
</svg>
