<svg width="28" height="32" viewBox="0 0 28 32" fill="none" xmlns="http://www.w3.org/2000/svg">
<path d="M24.7388 3.33452C20.954 -0.450306 14.7906 -0.450306 11.0098 3.33452L0.523203 13.8131C0.454899 13.8814 0.418738 13.9738 0.418738 14.0702C0.418738 14.1667 0.454899 14.2591 0.523203 14.3274L2.00579 15.81C2.07356 15.8774 2.1653 15.9153 2.26093 15.9153C2.35656 15.9153 2.44829 15.8774 2.51606 15.81L13.0027 5.33139C14.3045 4.0296 16.0361 3.31443 17.8763 3.31443C19.7165 3.31443 21.4482 4.0296 22.746 5.33139C24.0478 6.63318 24.7629 8.36487 24.7629 10.201C24.7629 12.0412 24.0478 13.7689 22.746 15.0707L12.0585 25.7542L10.3268 27.4859C8.70758 29.1051 6.07588 29.1051 4.45669 27.4859C3.6732 26.7024 3.24329 25.6617 3.24329 24.5528C3.24329 23.4439 3.6732 22.4033 4.45669 21.6198L15.0598 11.0207C15.329 10.7555 15.6826 10.6068 16.0603 10.6068H16.0643C16.442 10.6068 16.7915 10.7555 17.0567 11.0207C17.3259 11.2899 17.4705 11.6434 17.4705 12.0211C17.4705 12.3948 17.3219 12.7484 17.0567 13.0135L8.39017 21.672C8.32186 21.7403 8.2857 21.8327 8.2857 21.9292C8.2857 22.0256 8.32186 22.118 8.39017 22.1863L9.87276 23.6689C9.94053 23.7364 10.0323 23.7742 10.1279 23.7742C10.2235 23.7742 10.3153 23.7364 10.383 23.6689L19.0455 15.0064C19.8451 14.2068 20.283 13.1461 20.283 12.0171C20.283 10.8881 19.8411 9.82335 19.0455 9.02782C17.3942 7.37648 14.7103 7.3805 13.0589 9.02782L12.0303 10.0604L2.45981 19.6269C1.81025 20.2727 1.29535 21.041 0.944979 21.8872C0.594608 22.7335 0.415737 23.6409 0.418738 24.5568C0.418738 26.4171 1.14597 28.1649 2.45981 29.4787C3.82186 30.8367 5.60579 31.5158 7.38972 31.5158C9.17365 31.5158 10.9576 30.8367 12.3156 29.4787L24.7388 17.0635C26.567 15.2314 27.5795 12.7926 27.5795 10.201C27.5835 7.6055 26.571 5.16666 24.7388 3.33452Z" fill="#4E4E4E"/>
</svg>
