<svg width="36" height="36" viewBox="0 0 36 36" fill="none" xmlns="http://www.w3.org/2000/svg">
<path d="M23.5375 12.4372C23.6848 12.4372 23.8053 12.5578 23.8053 12.7051C23.8053 12.7687 23.7853 12.8323 23.7451 12.8792L19.389 18.0689L23.7384 23.2553C23.7786 23.3055 23.802 23.3658 23.802 23.4294C23.802 23.5801 23.6815 23.6973 23.5341 23.6973L21.3243 23.6872L17.9995 19.7229L14.6748 23.6906L12.4616 23.7006C12.3143 23.7006 12.1937 23.5801 12.1937 23.4328C12.1944 23.3692 12.2169 23.3077 12.2573 23.2587L16.6134 18.0723L12.2573 12.8825C12.2172 12.8323 12.1937 12.7721 12.1937 12.7084C12.1937 12.5578 12.3143 12.4406 12.4616 12.4406L14.6748 12.4506L17.9995 16.4149L21.3277 12.4473L23.5375 12.4372Z" fill="#23295A"/>
<path d="M18 3C9.71652 3 3 9.71652 3 18C3 26.2835 9.71652 33 18 33C26.2835 33 33 26.2835 33 18C33 9.71652 26.2835 3 18 3ZM18 30.4554C11.1228 30.4554 5.54464 24.8772 5.54464 18C5.54464 11.1228 11.1228 5.54464 18 5.54464C24.8772 5.54464 30.4554 11.1228 30.4554 18C30.4554 24.8772 24.8772 30.4554 18 30.4554Z" fill="#23295A"/>
</svg>
