<svg width="36" height="36" viewBox="0 0 36 36" fill="none" xmlns="http://www.w3.org/2000/svg">
<path d="M33.9756 31.766L23.5413 21.3317C25.1604 19.2384 26.0363 16.679 26.0363 13.987C26.0363 10.7647 24.7788 7.74326 22.5046 5.46514C20.2305 3.18701 17.2011 1.93344 13.9828 1.93344C10.7645 1.93344 7.735 3.19103 5.4609 5.46514C3.18277 7.73924 1.9292 10.7647 1.9292 13.987C1.9292 17.2053 3.18679 20.2348 5.4609 22.5089C7.735 24.787 10.7604 26.0406 13.9828 26.0406C16.6747 26.0406 19.2301 25.1647 21.3234 23.5495L31.7578 33.9799C31.7884 34.0105 31.8247 34.0348 31.8647 34.0513C31.9047 34.0679 31.9475 34.0764 31.9908 34.0764C32.0341 34.0764 32.0769 34.0679 32.1169 34.0513C32.1569 34.0348 32.1932 34.0105 32.2238 33.9799L33.9756 32.2321C34.0062 32.2015 34.0305 32.1652 34.0471 32.1252C34.0637 32.0852 34.0722 32.0423 34.0722 31.9991C34.0722 31.9558 34.0637 31.9129 34.0471 31.8729C34.0305 31.833 34.0062 31.7966 33.9756 31.766ZM20.3471 20.3513C18.6435 22.0509 16.3854 22.987 13.9828 22.987C11.5801 22.987 9.32206 22.0509 7.61848 20.3513C5.91893 18.6477 4.98277 16.3897 4.98277 13.987C4.98277 11.5843 5.91893 9.32228 7.61848 7.62273C9.32206 5.92317 11.5801 4.98701 13.9828 4.98701C16.3854 4.98701 18.6475 5.91916 20.3471 7.62273C22.0466 9.3263 22.9828 11.5843 22.9828 13.987C22.9828 16.3897 22.0466 18.6517 20.3471 20.3513Z" fill="#4E4E4E"/>
</svg>
