<svg width="16" height="14" viewBox="0 0 16 14" fill="none" xmlns="http://www.w3.org/2000/svg">
<path d="M15.4286 0.710938H0.571429C0.255357 0.710938 0 0.966295 0 1.28237V12.7109C0 13.027 0.255357 13.2824 0.571429 13.2824H15.4286C15.7446 13.2824 16 13.027 16 12.7109V1.28237C16 0.966295 15.7446 0.710938 15.4286 0.710938ZM14.7143 11.9967H1.28571V1.99665H14.7143V11.9967Z" fill="#4E4E4E"/>
<path d="M11.68 4.97389H8.09L6.917 3.90966C6.90208 3.89641 6.88244 3.88896 6.862 3.8888H4.32C4.143 3.8888 4 4.02443 4 4.19232V9.80749C4 9.97538 4.143 10.111 4.32 10.111H11.68C11.857 10.111 12 9.97538 12 9.80749V5.27741C12 5.10953 11.857 4.97389 11.68 4.97389Z" fill="#4E4E4E"/>
</svg>
