<svg width="36" height="30" viewBox="0 0 36 30" fill="none" xmlns="http://www.w3.org/2000/svg">
<path d="M3 6H0V13.5H0.015L0 27C0 28.65 1.35 30 3 30H30V27H3V6ZM33 3H21L18 0H9C7.35 0 6.015 1.35 6.015 3L6 21C6 22.65 7.35 24 9 24H33C34.65 24 36 22.65 36 21V6C36 4.35 34.65 3 33 3ZM33 21H9V3H16.755L19.755 6H33V21Z" fill="#4E4E4E"/>
<path d="M28.8431 11.4189H17.3922C17.3059 11.4189 17.2353 11.4943 17.2353 11.5865V12.7595C17.2353 12.8517 17.3059 12.9271 17.3922 12.9271H28.8431C28.9294 12.9271 29 12.8517 29 12.7595V11.5865C29 11.4943 28.9294 11.4189 28.8431 11.4189ZM28.8431 16.0729H17.3922C17.3059 16.0729 17.2353 16.1483 17.2353 16.2405V17.4135C17.2353 17.5057 17.3059 17.5811 17.3922 17.5811H28.8431C28.9294 17.5811 29 17.5057 29 17.4135V16.2405C29 16.1483 28.9294 16.0729 28.8431 16.0729ZM13 12.173C13 12.3271 13.0284 12.4796 13.0836 12.6219C13.1388 12.7642 13.2196 12.8935 13.3216 13.0025C13.4236 13.1114 13.5446 13.1978 13.6778 13.2567C13.8111 13.3157 13.9538 13.346 14.098 13.346C14.2422 13.346 14.385 13.3157 14.5182 13.2567C14.6515 13.1978 14.7725 13.1114 14.8745 13.0025C14.9764 12.8935 15.0573 12.7642 15.1125 12.6219C15.1677 12.4796 15.1961 12.3271 15.1961 12.173C15.1961 12.019 15.1677 11.8664 15.1125 11.7241C15.0573 11.5818 14.9764 11.4525 14.8745 11.3436C14.7725 11.2346 14.6515 11.1482 14.5182 11.0893C14.385 11.0303 14.2422 11 14.098 11C13.9538 11 13.8111 11.0303 13.6778 11.0893C13.5446 11.1482 13.4236 11.2346 13.3216 11.3436C13.2196 11.4525 13.1388 11.5818 13.0836 11.7241C13.0284 11.8664 13 12.019 13 12.173ZM13 16.827C13 16.981 13.0284 17.1336 13.0836 17.2759C13.1388 17.4182 13.2196 17.5475 13.3216 17.6564C13.4236 17.7654 13.5446 17.8518 13.6778 17.9107C13.8111 17.9697 13.9538 18 14.098 18C14.2422 18 14.385 17.9697 14.5182 17.9107C14.6515 17.8518 14.7725 17.7654 14.8745 17.6564C14.9764 17.5475 15.0573 17.4182 15.1125 17.2759C15.1677 17.1336 15.1961 16.981 15.1961 16.827C15.1961 16.6729 15.1677 16.5204 15.1125 16.3781C15.0573 16.2358 14.9764 16.1065 14.8745 15.9975C14.7725 15.8886 14.6515 15.8022 14.5182 15.7433C14.385 15.6843 14.2422 15.654 14.098 15.654C13.9538 15.654 13.8111 15.6843 13.6778 15.7433C13.5446 15.8022 13.4236 15.8886 13.3216 15.9975C13.2196 16.1065 13.1388 16.2358 13.0836 16.3781C13.0284 16.5204 13 16.6729 13 16.827Z" fill="#4E4E4E"/>
</svg>
