<svg width="36" height="36" viewBox="0 0 36 36" fill="none" xmlns="http://www.w3.org/2000/svg">
<g clip-path="url(#clip0)">
<path d="M25.1558 12.5937C25.3929 12.5937 25.6299 12.6017 25.8629 12.6138C24.8826 7.44277 19.5027 3.4892 13.0098 3.4892C5.82589 3.4892 0 8.33473 0 14.3133C0 17.5718 1.75179 20.5088 4.49598 22.4937C4.60917 22.5736 4.70147 22.6795 4.76511 22.8026C4.82874 22.9257 4.86184 23.0623 4.86161 23.2008C4.86161 23.2972 4.84152 23.3856 4.81741 23.478C4.59643 24.2937 4.24688 25.5995 4.2308 25.6597C4.20268 25.7642 4.1625 25.8687 4.1625 25.9771C4.1625 26.2142 4.35536 26.4111 4.59643 26.4111C4.68884 26.4111 4.76518 26.3749 4.84554 26.3307L7.6942 24.6874C7.90714 24.5629 8.13616 24.4865 8.38527 24.4865C8.51384 24.4865 8.64241 24.5066 8.76697 24.5428C10.0969 24.9245 11.5313 25.1374 13.0138 25.1374C13.2549 25.1374 13.492 25.1334 13.729 25.1213C13.4438 24.2776 13.2911 23.3896 13.2911 22.4696C13.2911 17.0133 18.6027 12.5937 25.1558 12.5937ZM17.3491 9.11821C18.3054 9.11821 19.0848 9.89366 19.0848 10.8499C19.0848 11.8062 18.3094 12.5816 17.3491 12.5816C16.3929 12.5816 15.6134 11.8062 15.6134 10.8499C15.6134 9.89366 16.3929 9.11821 17.3491 9.11821ZM8.67455 12.5816C7.7183 12.5816 6.93884 11.8062 6.93884 10.8499C6.93884 9.89366 7.71429 9.11821 8.67455 9.11821C9.63482 9.11821 10.4103 9.89366 10.4103 10.8499C10.4103 11.8062 9.6308 12.5816 8.67455 12.5816ZM32.2513 29.2798C34.5375 27.6245 35.996 25.1816 35.996 22.4615C35.996 17.4794 31.1424 13.4414 25.1518 13.4414C19.1652 13.4414 14.3076 17.4794 14.3076 22.4615C14.3076 27.4437 19.1612 31.4816 25.1518 31.4816C26.3893 31.4816 27.5866 31.3048 28.6915 30.9874C28.796 30.9553 28.9004 30.9392 29.0089 30.9392C29.2179 30.9392 29.4067 31.0035 29.5835 31.1039L31.958 32.47C32.0263 32.5102 32.0906 32.5383 32.167 32.5383C32.2146 32.5387 32.2618 32.5297 32.306 32.5117C32.3501 32.4938 32.3902 32.4673 32.4241 32.4338C32.4576 32.4 32.4841 32.3598 32.502 32.3157C32.5199 32.2716 32.529 32.2243 32.5286 32.1767C32.5286 32.0883 32.4924 31.9999 32.4723 31.9115C32.4603 31.8633 32.167 30.7745 31.9821 30.0914C31.9621 30.0151 31.946 29.9388 31.946 29.8624C31.95 29.6254 32.0705 29.4124 32.2513 29.2798ZM21.5438 21.0231C20.7442 21.0231 20.0973 20.3763 20.0973 19.5807C20.0973 18.7852 20.7442 18.1383 21.5438 18.1383C22.3433 18.1383 22.9902 18.7852 22.9902 19.5807C22.9902 20.3763 22.3393 21.0231 21.5438 21.0231ZM28.7719 21.0231C27.9723 21.0231 27.3254 20.3763 27.3254 19.5807C27.3254 18.7852 27.9723 18.1383 28.7719 18.1383C29.5714 18.1383 30.2183 18.7852 30.2183 19.5807C30.2164 19.9634 30.0633 20.3298 29.7923 20.6C29.5213 20.8702 29.1545 21.0223 28.7719 21.0231Z" fill="#4E4E4E"/>
</g>
<defs>
<clipPath id="clip0">
<rect width="36" height="36" fill="white"/>
</clipPath>
</defs>
</svg>
