<svg width="34" height="34" viewBox="0 0 34 34" fill="none" xmlns="http://www.w3.org/2000/svg">
<path fill-rule="evenodd" clip-rule="evenodd" d="M0.75 4.27631C0.75 2.36473 2.26055 0.75 4.20573 0.75H29.7943C31.7394 0.75 33.25 2.36474 33.25 4.27631V6.77041C33.25 7.70438 32.8886 8.60864 32.2279 9.27563C32.2274 9.27611 32.2269 9.27659 32.2265 9.27707L21.3544 20.3031V28.6279C21.3544 29.112 21.0748 29.5527 20.6368 29.7589L13.4723 33.131C13.0851 33.3132 12.6316 33.2847 12.2702 33.0554C11.9089 32.8262 11.69 32.4279 11.69 32V20.2729L1.67069 9.2254C1.67062 9.22533 1.67076 9.22548 1.67069 9.2254C1.07424 8.56893 0.75 7.71082 0.75 6.82745V4.27631ZM4.20573 3.25C3.71423 3.25 3.25 3.67133 3.25 4.27631V6.82745C3.25 7.102 3.35097 7.35712 3.52087 7.54408L13.8659 18.9508C14.0745 19.1807 14.19 19.4801 14.19 19.7905V30.0301L18.8544 27.8347V19.7905C18.8544 19.462 18.9837 19.1468 19.2144 18.9129L30.4489 7.5192L30.4514 7.51661C30.6366 7.3299 30.75 7.06293 30.75 6.77041V4.27631C30.75 3.67133 30.2858 3.25 29.7943 3.25H4.20573Z" fill="#4E4E4E"/>
</svg>
